<?xml version="1.0" encoding="iso-8859-1"?>
<!-- Generator: Adobe Illustrator 19.0.0, SVG Export Plug-In . SVG Version: 6.00 Build 0)  -->
<svg version="1.1" id="Layer_1" xmlns="http://www.w3.org/2000/svg" xmlns:xlink="http://www.w3.org/1999/xlink" x="0px" y="0px"
	 viewBox="0 0 512 512" style="enable-background:new 0 0 512 512;" xml:space="preserve">
<path style="fill:#F9A926;" d="M279.245,21.147v55.518c0,11.687-9.474,21.147-21.147,21.147H257.9
	c-11.589-0.113-20.95-9.53-20.95-21.147V21.147c0-11.603,9.361-21.034,20.95-21.147h0.197C269.771,0,279.245,9.474,279.245,21.147z"
	/>
<path style="fill:#ED9920;" d="M279.245,21.147v55.518c0,11.687-9.474,21.147-21.147,21.147H257.9V0h0.197
	C269.771,0,279.245,9.474,279.245,21.147z"/>
<path style="fill:#FFC033;" d="M342.702,93.458v18.595c0,20.992-17.073,38.065-38.064,38.065h-93.47
	c-20.992,0-38.064-17.073-38.064-38.065V93.458c0-20.978,17.073-38.065,38.064-38.065h93.47
	C325.63,55.394,342.702,72.48,342.702,93.458z"/>
<path style="fill:#F9A926;" d="M342.702,93.458v18.595c0,20.992-17.073,38.065-38.064,38.065h-46.735V55.394h46.735
	C325.63,55.394,342.702,72.48,342.702,93.458z"/>
<path style="fill:#E6563A;" d="M369.883,183.87v290.066c0,20.992-17.087,38.064-38.064,38.064H180.181
	c-20.978,0-38.064-17.073-38.064-38.064V183.87c0-9.276,6.499-23.656,19.3-42.717c13.421-20.005,25.405-33.328,40.236-33.328
	h110.302c15.043,0,26.744,13.478,39.686,33.722C363.737,160.466,369.883,174.706,369.883,183.87z"/>
<path style="fill:#D9472B;" d="M369.883,183.87v290.066c0,20.992-17.087,38.064-38.064,38.064h-73.916V107.824h54.052
	c15.043,0,26.744,13.478,39.686,33.722C363.737,160.466,369.883,174.706,369.883,183.87z"/>
<path style="fill:#FFC033;" d="M318.484,315.6c0,33.44-27.153,60.649-60.565,60.762h-0.197c-33.511,0-60.762-27.251-60.762-60.762
	c0-33.497,27.251-60.762,60.762-60.762h0.197C291.331,254.95,318.484,282.175,318.484,315.6z"/>
<path style="fill:#F9A926;" d="M318.484,315.6c0,33.44-27.153,60.649-60.565,60.762V254.838
	C291.331,254.95,318.484,282.175,318.484,315.6z"/>
<g>
</g>
<g>
</g>
<g>
</g>
<g>
</g>
<g>
</g>
<g>
</g>
<g>
</g>
<g>
</g>
<g>
</g>
<g>
</g>
<g>
</g>
<g>
</g>
<g>
</g>
<g>
</g>
<g>
</g>
</svg>
